<?xml version="1.0" encoding="utf-8"?>
<!-- Generator: Adobe Illustrator 21.1.0, SVG Export Plug-In . SVG Version: 6.00 Build 0)  -->
<svg version="1.1" id="Capa_1" xmlns="http://www.w3.org/2000/svg" xmlns:xlink="http://www.w3.org/1999/xlink" x="0px" y="0px"
	 viewBox="0 0 470 470" style="enable-background:new 0 0 470 470;" xml:space="preserve">
<style type="text/css">
	.st0{fill:#FFFFFF;}
</style>
<g>
	<path class="st0" d="M409.6,45c4.1,0,7.5-3.4,7.5-7.5v-30c0-4.1-3.4-7.5-7.5-7.5h-236c-4.1,0-7.5,3.4-7.5,7.5V120h-43.5
		c-4.1,0-7.5,3.4-7.5,7.5v7.5h-15v-7.5c0-4.1-3.4-7.5-7.5-7.5H75.4c-12.4,0-22.5,10.1-22.5,22.5S63,165,75.4,165h17.3
		c4.1,0,7.5-3.4,7.5-7.5V150h15v7.5c0,4.1,3.4,7.5,7.5,7.5h28.5v15.7c-20.4,3.6-36,21.4-36,42.8v117c0,21.4,15.6,39.3,36,42.8v30.2
		c0,8.8,6.5,16.1,15,17.3v31.7c0,4.1,3.4,7.5,7.5,7.5s7.5-3.4,7.5-7.5v-31.7c8.5-1.2,15-8.5,15-17.3v-30.2c20.4-3.6,36-21.4,36-42.8
		v-117c0-21.4-15.6-39.3-36-42.8V165h213.5c4.1,0,7.5-3.4,7.5-7.5v-30c0-4.1-3.4-7.5-7.5-7.5h-22.5V45H409.6z M67.9,142.5
		c0-4.1,3.4-7.5,7.5-7.5h9.8v15h-9.8C71.2,150,67.9,146.6,67.9,142.5z M402.1,150h-272v-15h272L402.1,150L402.1,150z M217.1,340.5
		c0,15.7-12.8,28.5-28.5,28.5h-30c-15.7,0-28.5-12.8-28.5-28.5v-117c0-15.7,12.8-28.5,28.5-28.5h30c15.7,0,28.5,12.8,28.5,28.5
		V340.5z M178.6,416h-10c-1.4,0-2.5-1.1-2.5-2.5V384h15v29.5C181.1,414.9,180,416,178.6,416z M181.1,180h-15v-15h15V180z M181.1,15
		h221v15h-221V15z M269.1,120V67.5c0-4.1-3.4-7.5-7.5-7.5c-4.1,0-7.5,3.4-7.5,7.5V120h-43V45h73v75H269.1L269.1,120z M181.1,45h15
		v75h-15V45z M372.1,120h-15V67.5c0-4.1-3.4-7.5-7.5-7.5c-4.1,0-7.5,3.4-7.5,7.5V120h-43V45h73V120z"/>
	<path class="st0" d="M152.6,348h42c4.1,0,7.5-3.4,7.5-7.5c0-4.1-3.4-7.5-7.5-7.5h-42c-4.1,0-7.5,3.4-7.5,7.5
		C145.1,344.7,148.5,348,152.6,348z"/>
	<path class="st0" d="M194.6,303.8h-42c-4.1,0-7.5,3.4-7.5,7.5s3.4,7.5,7.5,7.5h42c4.1,0,7.5-3.4,7.5-7.5S198.8,303.8,194.6,303.8z"
		/>
	<path class="st0" d="M194.6,274.5h-42c-4.1,0-7.5,3.4-7.5,7.5s3.4,7.5,7.5,7.5h42c4.1,0,7.5-3.4,7.5-7.5S198.8,274.5,194.6,274.5z"
		/>
	<path class="st0" d="M194.6,245.3h-42c-4.1,0-7.5,3.4-7.5,7.5s3.4,7.5,7.5,7.5h42c4.1,0,7.5-3.4,7.5-7.5S198.8,245.3,194.6,245.3z"
		/>
	<path class="st0" d="M152.6,231h42c4.1,0,7.5-3.4,7.5-7.5s-3.4-7.5-7.5-7.5h-42c-4.1,0-7.5,3.4-7.5,7.5S148.5,231,152.6,231z"/>
</g>
</svg>
